<?xml version="1.0" encoding="utf-8"?>
<!-- Generator: Adobe Illustrator 16.0.0, SVG Export Plug-In . SVG Version: 6.00 Build 0)  -->
<!DOCTYPE svg PUBLIC "-//W3C//DTD SVG 1.1//EN" "http://www.w3.org/Graphics/SVG/1.1/DTD/svg11.dtd">
<svg version="1.1" xmlns="http://www.w3.org/2000/svg" xmlns:xlink="http://www.w3.org/1999/xlink" x="0px" y="0px" width="173.5px"
	 height="176px" viewBox="0 0 173.5 176" enable-background="new 0 0 173.5 176" xml:space="preserve">
<g id="Layer_1">
	<g>
		<path fill="#FFFFFF" d="M169.251,158.091c0,6.236-5.103,11.339-11.339,11.339H15.424c-6.236,0-11.339-5.103-11.339-11.339V15.603
			c0-6.236,5.103-11.339,11.339-11.339h142.488c6.236,0,11.339,5.103,11.339,11.339V158.091z"/>
	</g>
	<g>
		<path fill="#0A4F8A" d="M56.119,61.277c3.046-2.94,6.66-5.395,10.777-7.169c4.026-1.734,8.194-2.677,12.331-2.899L77.242,9.895
			c-8.883,0.467-17.834,2.482-26.481,6.208c-8.856,3.815-16.621,9.103-23.159,15.436l28.492,29.765
			C56.103,61.295,56.11,61.285,56.119,61.277z"/>
		<path fill="#0A77B8" d="M103.456,58.92l25.755-32.47C114.579,14.895,96.067,8.904,77.242,9.895l1.987,41.362
			C87.998,50.787,96.624,53.56,103.456,58.92z"/>
		<path fill="#0A88C2" d="M114.292,72.96c1.069,2.481,1.827,5.017,2.311,7.565c0.003,0.016,0.005,0.031,0.008,0.047l40.593-7.638
			c-1.034-5.552-2.673-11.076-5.002-16.48c-5.248-12.181-13.261-22.317-22.987-30L103.483,58.89
			C108.058,62.485,111.827,67.24,114.292,72.96z"/>
		<path fill="#2997CA" d="M157.204,72.935l-40.605,7.64c1.666,8.764-0.025,17.679-4.423,25.104l35.41,20.872
			C157.025,110.703,160.692,91.666,157.204,72.935z"/>
		<path fill="#57ADD5" d="M112.176,105.679c-3.752,6.335-9.464,11.587-16.744,14.723c-1.033,0.445-2.076,0.831-3.125,1.173
			l12.849,38.833c2.246-0.732,4.48-1.559,6.692-2.512c15.517-6.685,27.706-17.861,35.737-31.345L112.176,105.679z"/>
		<path fill="#75BCDD" d="M66.957,120.42l-15.882,37.59c16.676,7.096,35.8,8.349,54.034,2.414l-12.823-38.842
			C83.736,124.365,74.769,123.766,66.957,120.42z"/>
	</g>
	<g>
		<circle fill="#0A4F8A" cx="81.074" cy="87.358" r="33.278"/>
	</g>
	<g>
		<path fill="#FFFFFF" d="M80.584,78.998c0.107-0.003,0.216-0.017,0.324-0.043c0.107-0.023,0.226-0.049,0.355-0.073
			c0.583-0.083,1.124-0.131,1.623-0.146c2.19-0.064,4.262,0.254,6.214,0.957c1.932,0.768,3.636,1.879,5.11,3.334
			c1.476,1.475,2.62,3.178,3.438,5.106c0.772,1.931,1.193,4.067,1.262,6.409c0.076,2.58-0.259,4.89-1.001,6.93
			c-0.742,2.105-1.913,3.985-3.514,5.638c-1.665,1.698-3.527,2.935-5.588,3.711c-2.232,0.848-4.584,1.307-7.057,1.38
			c-2.45,0.071-4.694-0.254-6.733-0.976c-2.061-0.677-3.872-1.785-5.437-3.323c-1.562-1.452-2.753-3.219-3.573-5.3
			c-0.816-1.929-1.261-4.162-1.336-6.699c-0.078-2.688,0.717-5.935,2.385-9.738c1.604-3.757,4.039-8.061,7.305-12.908l-0.001-0.033
			l0.781-1.097l-0.001-0.033l7.731-11.652l0.655-0.963l1.023,0.491l5.842,2.727l1.485,0.704l-0.971,1.299L80.584,78.998z
			 M74.529,95.681c0.037,1.258,0.231,2.348,0.584,3.271c0.331,0.923,0.843,1.732,1.536,2.429c0.583,0.655,1.313,1.155,2.192,1.499
			c0.812,0.323,1.75,0.47,2.812,0.438c1.257-0.037,2.325-0.242,3.204-0.615c0.879-0.374,1.634-0.906,2.265-1.596l0.033-0.001
			c0.587-0.69,1.051-1.508,1.393-2.45c0.297-0.986,0.427-2.117,0.389-3.397c-0.038-1.301-0.233-2.435-0.588-3.4
			c-0.375-0.943-0.886-1.732-1.534-2.364c-0.604-0.612-1.378-1.1-2.321-1.463c-0.92-0.298-1.987-0.429-3.202-0.393
			c-1.105,0.032-2.055,0.233-2.847,0.603c-0.793,0.35-1.504,0.891-2.133,1.626c-0.63,0.733-1.093,1.584-1.391,2.548
			C74.624,93.377,74.493,94.467,74.529,95.681z"/>
	</g>
</g>
<g id="Layer_2">
</g>
</svg>
